<svg width="293" height="62" viewBox="0 0 293 62" fill="none" xmlns="http://www.w3.org/2000/svg">
<g filter="url(#filter0_d_116_481)">
<path d="M9.84 8.68005C10.1333 7.80005 10.9867 7.24005 12.4 7.00005C13.8133 6.76005 15.9467 6.64005 18.8 6.64005C21.68 6.64005 23.88 6.88005 25.4 7.36005C26.92 7.81339 27.68 8.46672 27.68 9.32005C27.68 9.72005 27.52 10.0134 27.2 10.2001C26.9067 10.3601 26.64 10.4934 26.4 10.6001C26.1867 10.6801 25.88 10.7601 25.48 10.8401C25.1067 10.9201 24.76 11.0001 24.44 11.0801C24.12 11.1334 23.6933 11.1867 23.16 11.2401C22.6533 11.2934 22.2133 11.3467 21.84 11.4001C21.4667 11.4267 20.9733 11.4801 20.36 11.5601C19.7467 11.6134 19.1867 11.6667 18.68 11.7201C18.1733 11.7734 16.84 11.9734 14.68 12.3201V12.3601C14.68 13.3201 14.2667 15.8667 13.44 20.0001C13.7867 20.0267 14.4133 20.0401 15.32 20.0401C16.2533 20.0401 17.4667 19.9734 18.96 19.8401C20.4533 19.6801 21.4267 19.6001 21.88 19.6001C22.36 19.6001 22.76 19.7201 23.08 19.9601C23.4 20.2001 23.56 20.4667 23.56 20.7601C23.56 21.4801 23.1333 22.1201 22.28 22.6801C21.4267 23.2401 20.36 23.6801 19.08 24.0001C16.52 24.6401 14.2667 24.9867 12.32 25.0401C11.52 28.4267 11.0267 30.5067 10.84 31.2801C10.68 32.0267 10.5067 32.7467 10.32 33.4401C9.97333 34.8001 9.65333 35.4801 9.36 35.4801C8.8 35.4801 8.04 34.8534 7.08 33.6001C6.12 32.3467 5.64 31.4134 5.64 30.8001C5.64 29.7334 6.29333 26.3467 7.6 20.6401C8.93333 14.9334 9.64 11.3467 9.72 9.88005V9.56005C9.72 9.21339 9.76 8.92005 9.84 8.68005Z" fill="white"/>
<path d="M31.1197 3.68005C31.7597 3.68005 32.5864 4.26672 33.5997 5.44005C34.613 6.61339 35.1197 7.73339 35.1197 8.80005C35.1197 9.86672 34.9597 11.7734 34.6397 14.5201C34.3197 17.2401 33.9864 19.4134 33.6397 21.0401C31.4264 30.6934 29.8797 35.5201 28.9997 35.5201C28.413 35.5201 27.6797 35.0534 26.7997 34.1201C25.9464 33.1601 25.5197 32.3734 25.5197 31.7601C25.5197 31.7067 25.8797 30.3201 26.5997 27.6001C27.3197 24.8801 28.0397 21.3867 28.7597 17.1201C29.5064 12.8267 29.8797 8.73339 29.8797 4.84005C29.8797 4.06672 30.293 3.68005 31.1197 3.68005Z" fill="white"/>
<path d="M49.8247 15.8801C49.9847 15.2134 50.4247 14.8801 51.1447 14.8801C51.8647 14.8801 52.598 15.3334 53.3447 16.2401C54.118 17.1467 54.5047 18.1734 54.5047 19.3201C54.5047 19.9867 54.2647 21.0401 53.7847 22.4801C53.3047 23.9201 52.958 24.9467 52.7447 25.5601C52.558 26.1734 52.278 27.0134 51.9047 28.0801C51.5314 29.1201 51.1847 30.0934 50.8647 31.0001C50.5714 31.8801 50.158 33.0667 49.6247 34.5601C49.118 36.0534 48.6514 37.4401 48.2247 38.7201C47.398 41.1201 46.3847 42.9734 45.1847 44.2801C44.0114 45.5867 42.478 46.2401 40.5847 46.2401C38.6914 46.2401 36.998 45.7334 35.5047 44.7201C34.0114 43.7334 33.2647 42.7334 33.2647 41.7201C33.2647 41.1067 33.5314 40.4267 34.0647 39.6801C34.6247 38.9334 35.0914 38.5601 35.4647 38.5601C35.8647 38.5601 36.3714 38.8667 36.9847 39.4801C37.6247 40.1201 38.278 40.7467 38.9447 41.3601C39.6114 42.0001 40.198 42.3201 40.7047 42.3201C41.0514 42.3201 41.3314 42.1601 41.5447 41.8401C41.7847 41.5201 41.9714 41.2267 42.1047 40.9601C42.2647 40.7201 42.4247 40.3734 42.5847 39.9201C42.7447 39.4934 42.8914 39.0934 43.0247 38.7201C43.158 38.3467 43.318 37.8534 43.5047 37.2401C43.6914 36.6267 43.8514 36.0801 43.9847 35.6001C44.438 34.1601 44.8247 32.8801 45.1447 31.7601C44.2647 32.9067 43.358 33.8267 42.4247 34.5201C41.4914 35.1867 40.6247 35.5201 39.8247 35.5201C39.0514 35.5201 38.078 34.9334 36.9047 33.7601C35.758 32.5601 35.1847 31.2534 35.1847 29.8401C35.1847 28.4001 35.4914 26.4801 36.1047 24.0801C36.7447 21.6801 37.5314 19.5467 38.4647 17.6801C39.398 15.8134 40.2247 14.8801 40.9447 14.8801C41.7714 14.8801 42.5447 15.2401 43.2647 15.9601C44.0114 16.6534 44.3847 17.3334 44.3847 18.0001C44.3847 18.6401 44.0514 19.6801 43.3847 21.1201C42.7447 22.5601 42.0914 24.1334 41.4247 25.8401C40.758 27.5467 40.4247 29.0001 40.4247 30.2001C40.4247 30.3601 40.4914 30.4401 40.6247 30.4401C40.9714 30.4401 41.7047 29.8001 42.8247 28.5201C43.9447 27.2134 45.198 25.3734 46.5847 23.0001C47.998 20.6001 49.078 18.2267 49.8247 15.8801Z" fill="white"/>
<path d="M58.4059 9.88005C58.4059 9.18672 58.7126 8.48005 59.3259 7.76005C59.9659 7.01339 60.5793 6.64005 61.1659 6.64005C61.7793 6.64005 62.4993 7.36005 63.3259 8.80005C64.1526 10.2401 64.5659 11.2934 64.5659 11.9601C64.5659 12.6001 64.3526 13.0934 63.9259 13.4401C63.4993 13.7867 63.0593 13.9601 62.6059 13.9601C61.8326 13.9601 60.9393 13.4534 59.9259 12.4401C58.9126 11.4267 58.4059 10.5734 58.4059 9.88005ZM59.0059 14.8801C59.9393 14.8801 60.7659 15.4134 61.4859 16.4801C62.2326 17.5467 62.6059 18.5734 62.6059 19.5601C62.6059 20.0667 62.1393 21.8934 61.2059 25.0401C60.2993 28.1601 59.3926 31.1201 58.4859 33.9201C58.1659 34.9601 57.5126 35.4801 56.5259 35.4801C55.9393 35.4801 55.4193 35.2667 54.9659 34.8401C54.5393 34.3867 54.3259 33.8134 54.3259 33.1201C54.3259 32.4001 54.6593 30.6401 55.3259 27.8401C56.0193 25.0134 56.5393 22.6134 56.8859 20.6401C57.2593 18.6401 57.5926 17.1867 57.8859 16.2801C58.2059 15.3467 58.5793 14.8801 59.0059 14.8801Z" fill="white"/>
<path d="M78.3966 14.8801C79.7832 14.8801 80.9966 15.5067 82.0366 16.7601C83.1032 17.9867 83.6366 19.3067 83.6366 20.7201C83.6366 22.9867 83.2632 25.3601 82.5166 27.8401C81.7966 30.2934 80.9966 32.1867 80.1166 33.5201C79.2632 34.8534 78.3832 35.5201 77.4766 35.5201C76.5966 35.5201 76.1566 34.8934 76.1566 33.6401C76.1566 32.6801 76.5966 30.7467 77.4766 27.8401C78.1432 25.4401 78.4766 23.7201 78.4766 22.6801C78.4766 21.6401 78.3432 21.1201 78.0766 21.1201C77.7299 21.1201 77.3832 21.2934 77.0366 21.6401C76.7166 21.9867 76.4499 22.2934 76.2366 22.5601C76.0232 22.8267 75.7699 23.1734 75.4766 23.6001C75.2099 24.0001 74.9699 24.3734 74.7566 24.7201C74.5699 25.0401 74.3166 25.4667 73.9966 26.0001C73.7032 26.5067 73.4632 26.9334 73.2766 27.2801C73.0899 27.6001 72.8499 28.0267 72.5566 28.5601C70.0766 33.2001 68.1299 35.5201 66.7166 35.5201C66.1566 35.5201 65.4499 35.0401 64.5966 34.0801C63.7432 33.0934 63.3166 32.3734 63.3166 31.9201C63.3166 31.6267 63.5032 31.0001 63.8766 30.0401C64.2766 29.0534 64.5566 28.3067 64.7166 27.8001C64.9032 27.2667 65.0499 26.7067 65.1566 26.1201C65.2899 25.5334 65.3966 24.9067 65.4766 24.2401C65.5566 23.5467 65.6099 23.0134 65.6366 22.6401C65.6899 22.2667 65.7432 21.6801 65.7966 20.8801C66.0366 17.4134 66.2366 15.4934 66.3966 15.1201C66.5832 14.7467 66.7832 14.5601 66.9966 14.5601C68.0099 14.5601 68.9832 14.9867 69.9166 15.8401C70.8499 16.6667 71.3166 17.4267 71.3166 18.1201C71.3166 19.7734 70.8899 22.1467 70.0366 25.2401C71.7699 22.2001 73.3432 19.7201 74.7566 17.8001C76.1966 15.8534 77.4099 14.8801 78.3966 14.8801Z" fill="white"/>
<path d="M100.425 23.5201C100.825 23.9734 101.025 24.5201 101.025 25.1601C101.025 25.8001 100.758 26.5867 100.225 27.5201C99.5583 29.1201 98.9717 31.1067 98.465 33.4801C97.9583 35.8534 97.4517 37.7467 96.945 39.1601C96.465 40.6001 95.9317 41.8267 95.345 42.8401C94.785 43.8534 94.0117 44.6934 93.025 45.3601C92.0383 46.0267 90.905 46.3601 89.625 46.3601C87.8383 46.3601 86.2383 45.7734 84.825 44.6001C83.4117 43.4267 82.705 42.4134 82.705 41.5601C82.705 40.7334 82.9317 39.9734 83.385 39.2801C83.8383 38.6134 84.2517 38.2801 84.625 38.2801C85.025 38.2801 85.3983 38.4934 85.745 38.9201C86.1183 39.3467 86.4517 39.8001 86.745 40.2801C87.065 40.7867 87.4783 41.2534 87.985 41.6801C88.4917 42.1067 89.0517 42.3201 89.665 42.3201C90.2783 42.3201 90.8383 41.9201 91.345 41.1201C91.8517 40.3201 92.2383 39.4534 92.505 38.5201C93.1717 36.3334 93.585 34.7734 93.745 33.8401C91.9317 34.9601 90.4517 35.5201 89.305 35.5201C88.185 35.5201 87.0917 34.9067 86.025 33.6801C84.9583 32.4267 84.425 31.2534 84.425 30.1601C84.425 29.0401 84.7183 27.6534 85.305 26.0001C85.9183 24.3201 86.6917 22.6534 87.625 21.0001C88.585 19.3201 89.785 17.8801 91.225 16.6801C92.6917 15.4801 94.1583 14.8801 95.625 14.8801C96.6117 14.8801 97.4517 15.1334 98.145 15.6401C98.8383 16.1201 99.345 16.7734 99.665 17.6001C100.225 19.0401 100.505 20.6667 100.505 22.4801C100.505 22.7467 100.478 23.0934 100.425 23.5201ZM89.345 29.9601C89.345 30.3067 89.4917 30.4801 89.785 30.4801C90.5583 30.4801 91.8117 29.7734 93.545 28.3601C95.2783 26.9467 96.4383 25.5467 97.025 24.1601V23.4001C97.025 21.6667 96.865 20.6134 96.545 20.2401C96.385 20.0534 96.1717 19.9601 95.905 19.9601C94.625 19.9601 93.2117 21.3067 91.665 24.0001C90.1183 26.6934 89.345 28.6801 89.345 29.9601Z" fill="white"/>
<path d="M124.593 5.60005C125.26 5.60005 126.073 6.04005 127.033 6.92005C127.993 7.80005 128.473 8.70672 128.473 9.64005C128.473 12.2001 127.153 17.1601 124.513 24.5201C123.607 27.1067 123.153 28.9067 123.153 29.9201C123.153 30.0534 123.18 30.1334 123.233 30.1601C123.287 30.1867 123.78 30.2001 124.713 30.2001C125.647 30.2001 126.927 30.0667 128.553 29.8001C130.207 29.5067 131.54 29.2267 132.553 28.9601C133.593 28.6934 134.207 28.5601 134.393 28.5601C135.06 28.5601 135.393 28.9867 135.393 29.8401C135.393 31.5201 134.113 32.8801 131.553 33.9201C129.02 34.9334 126.073 35.4401 122.713 35.4401C121.407 35.4401 120.207 34.9601 119.113 34.0001C118.047 33.0134 117.513 31.9334 117.513 30.7601C117.513 29.5867 118.5 25.8001 120.473 19.4001C122.447 12.9734 123.433 8.81339 123.433 6.92005C123.433 6.04005 123.82 5.60005 124.593 5.60005Z" fill="white"/>
<path d="M154.509 24.1601C154.989 24.5867 155.229 24.9734 155.229 25.3201C155.229 25.6667 155.069 26.3867 154.749 27.4801C154.429 28.5734 154.216 29.4267 154.109 30.0401C154.003 30.6267 153.909 31.0934 153.829 31.4401C153.776 31.7867 153.736 32.0667 153.709 32.2801C153.683 32.4667 153.629 32.7067 153.549 33.0001C153.496 33.2934 153.443 33.5334 153.389 33.7201C153.363 33.8801 153.309 34.0801 153.229 34.3201C153.176 34.5334 153.109 34.7067 153.029 34.8401C152.949 34.9467 152.856 35.0667 152.749 35.2001C152.589 35.4134 152.323 35.5201 151.949 35.5201C151.576 35.5201 151.109 35.1467 150.549 34.4001C150.016 33.6534 149.616 32.7467 149.349 31.6801C146.843 34.2401 144.736 35.5201 143.029 35.5201C141.883 35.5201 140.643 34.8934 139.309 33.6401C137.976 32.3601 137.309 31.0934 137.309 29.8401C137.309 28.5601 137.883 26.7467 139.029 24.4001C140.176 22.0534 141.736 19.8801 143.709 17.8801C145.709 15.8801 147.683 14.8801 149.629 14.8801C150.749 14.8801 152.043 15.5334 153.509 16.8401C154.976 18.1467 155.709 19.3467 155.709 20.4401C155.709 21.5067 155.309 22.7467 154.509 24.1601ZM142.869 30.4801C143.936 30.4801 145.349 29.7601 147.109 28.3201C148.896 26.8534 150.003 25.0134 150.429 22.8001C150.456 22.4801 150.683 22.2934 151.109 22.2401C151.029 20.7201 150.776 19.9601 150.349 19.9601C149.283 19.9601 148.083 20.6534 146.749 22.0401C145.443 23.4267 144.363 24.9067 143.509 26.4801C142.683 28.0534 142.269 29.2134 142.269 29.9601C142.269 30.1734 142.296 30.3201 142.349 30.4001C142.429 30.4534 142.603 30.4801 142.869 30.4801Z" fill="white"/>
<path d="M171.42 14.8801C172.807 14.8801 174.02 15.5067 175.06 16.7601C176.127 17.9867 176.66 19.3067 176.66 20.7201C176.66 22.9867 176.287 25.3601 175.54 27.8401C174.82 30.2934 174.02 32.1867 173.14 33.5201C172.287 34.8534 171.407 35.5201 170.5 35.5201C169.62 35.5201 169.18 34.8934 169.18 33.6401C169.18 32.6801 169.62 30.7467 170.5 27.8401C171.167 25.4401 171.5 23.7201 171.5 22.6801C171.5 21.6401 171.367 21.1201 171.1 21.1201C170.753 21.1201 170.407 21.2934 170.06 21.6401C169.74 21.9867 169.473 22.2934 169.26 22.5601C169.047 22.8267 168.793 23.1734 168.5 23.6001C168.233 24.0001 167.993 24.3734 167.78 24.7201C167.593 25.0401 167.34 25.4667 167.02 26.0001C166.727 26.5067 166.487 26.9334 166.3 27.2801C166.113 27.6001 165.873 28.0267 165.58 28.5601C163.1 33.2001 161.153 35.5201 159.74 35.5201C159.18 35.5201 158.473 35.0401 157.62 34.0801C156.767 33.0934 156.34 32.3734 156.34 31.9201C156.34 31.6267 156.527 31.0001 156.9 30.0401C157.3 29.0534 157.58 28.3067 157.74 27.8001C157.927 27.2667 158.073 26.7067 158.18 26.1201C158.313 25.5334 158.42 24.9067 158.5 24.2401C158.58 23.5467 158.633 23.0134 158.66 22.6401C158.713 22.2667 158.767 21.6801 158.82 20.8801C159.06 17.4134 159.26 15.4934 159.42 15.1201C159.607 14.7467 159.807 14.5601 160.02 14.5601C161.033 14.5601 162.007 14.9867 162.94 15.8401C163.873 16.6667 164.34 17.4267 164.34 18.1201C164.34 19.7734 163.913 22.1467 163.06 25.2401C164.793 22.2001 166.367 19.7201 167.78 17.8001C169.22 15.8534 170.433 14.8801 171.42 14.8801Z" fill="white"/>
<path d="M193.448 23.5201C193.848 23.9734 194.048 24.5201 194.048 25.1601C194.048 25.8001 193.782 26.5867 193.248 27.5201C192.582 29.1201 191.995 31.1067 191.488 33.4801C190.982 35.8534 190.475 37.7467 189.968 39.1601C189.488 40.6001 188.955 41.8267 188.368 42.8401C187.808 43.8534 187.035 44.6934 186.048 45.3601C185.062 46.0267 183.928 46.3601 182.648 46.3601C180.862 46.3601 179.262 45.7734 177.848 44.6001C176.435 43.4267 175.728 42.4134 175.728 41.5601C175.728 40.7334 175.955 39.9734 176.408 39.2801C176.862 38.6134 177.275 38.2801 177.648 38.2801C178.048 38.2801 178.422 38.4934 178.768 38.9201C179.142 39.3467 179.475 39.8001 179.768 40.2801C180.088 40.7867 180.502 41.2534 181.008 41.6801C181.515 42.1067 182.075 42.3201 182.688 42.3201C183.302 42.3201 183.862 41.9201 184.368 41.1201C184.875 40.3201 185.262 39.4534 185.528 38.5201C186.195 36.3334 186.608 34.7734 186.768 33.8401C184.955 34.9601 183.475 35.5201 182.328 35.5201C181.208 35.5201 180.115 34.9067 179.048 33.6801C177.982 32.4267 177.448 31.2534 177.448 30.1601C177.448 29.0401 177.742 27.6534 178.328 26.0001C178.942 24.3201 179.715 22.6534 180.648 21.0001C181.608 19.3201 182.808 17.8801 184.248 16.6801C185.715 15.4801 187.182 14.8801 188.648 14.8801C189.635 14.8801 190.475 15.1334 191.168 15.6401C191.862 16.1201 192.368 16.7734 192.688 17.6001C193.248 19.0401 193.528 20.6667 193.528 22.4801C193.528 22.7467 193.502 23.0934 193.448 23.5201ZM182.368 29.9601C182.368 30.3067 182.515 30.4801 182.808 30.4801C183.582 30.4801 184.835 29.7734 186.568 28.3601C188.302 26.9467 189.462 25.5467 190.048 24.1601V23.4001C190.048 21.6667 189.888 20.6134 189.568 20.2401C189.408 20.0534 189.195 19.9601 188.928 19.9601C187.648 19.9601 186.235 21.3067 184.688 24.0001C183.142 26.6934 182.368 28.6801 182.368 29.9601Z" fill="white"/>
<path d="M209.746 15.8801C209.96 15.2134 210.386 14.8801 211.026 14.8801C211.666 14.8801 212.4 15.4267 213.226 16.5201C214.08 17.6134 214.506 18.5601 214.506 19.3601C214.506 19.6534 213.893 21.6134 212.666 25.2401C211.44 28.8667 210.493 31.7334 209.826 33.8401C209.453 34.9601 208.826 35.5201 207.946 35.5201C207.413 35.5201 206.96 35.3334 206.586 34.9601C206.24 34.5601 206.066 33.9467 206.066 33.1201C206.066 32.2934 206.226 31.1201 206.546 29.6001C203.8 33.5467 201.613 35.5201 199.986 35.5201C199.133 35.5201 198.106 34.9734 196.906 33.8801C195.706 32.7601 195.106 31.6801 195.106 30.6401C195.106 28.0801 195.826 24.8134 197.266 20.8401C198.733 16.8667 200.106 14.8801 201.386 14.8801C202.16 14.8801 202.84 15.2267 203.426 15.9201C204.04 16.6134 204.346 17.3734 204.346 18.2001C204.346 18.5201 204.013 19.4134 203.346 20.8801C201.32 25.2801 200.306 28.3867 200.306 30.2001C200.306 30.3601 200.373 30.4401 200.506 30.4401C200.906 30.4401 201.653 29.8134 202.746 28.5601C203.866 27.2801 205.106 25.4667 206.466 23.1201C207.853 20.7467 208.946 18.3334 209.746 15.8801Z" fill="white"/>
<path d="M230.959 24.1601C231.439 24.5867 231.679 24.9734 231.679 25.3201C231.679 25.6667 231.519 26.3867 231.199 27.4801C230.879 28.5734 230.666 29.4267 230.559 30.0401C230.453 30.6267 230.359 31.0934 230.279 31.4401C230.226 31.7867 230.186 32.0667 230.159 32.2801C230.133 32.4667 230.079 32.7067 229.999 33.0001C229.946 33.2934 229.893 33.5334 229.839 33.7201C229.813 33.8801 229.759 34.0801 229.679 34.3201C229.626 34.5334 229.559 34.7067 229.479 34.8401C229.399 34.9467 229.306 35.0667 229.199 35.2001C229.039 35.4134 228.773 35.5201 228.399 35.5201C228.026 35.5201 227.559 35.1467 226.999 34.4001C226.466 33.6534 226.066 32.7467 225.799 31.6801C223.293 34.2401 221.186 35.5201 219.479 35.5201C218.333 35.5201 217.093 34.8934 215.759 33.6401C214.426 32.3601 213.759 31.0934 213.759 29.8401C213.759 28.5601 214.333 26.7467 215.479 24.4001C216.626 22.0534 218.186 19.8801 220.159 17.8801C222.159 15.8801 224.133 14.8801 226.079 14.8801C227.199 14.8801 228.493 15.5334 229.959 16.8401C231.426 18.1467 232.159 19.3467 232.159 20.4401C232.159 21.5067 231.759 22.7467 230.959 24.1601ZM219.319 30.4801C220.386 30.4801 221.799 29.7601 223.559 28.3201C225.346 26.8534 226.453 25.0134 226.879 22.8001C226.906 22.4801 227.133 22.2934 227.559 22.2401C227.479 20.7201 227.226 19.9601 226.799 19.9601C225.733 19.9601 224.533 20.6534 223.199 22.0401C221.893 23.4267 220.813 24.9067 219.959 26.4801C219.133 28.0534 218.719 29.2134 218.719 29.9601C218.719 30.1734 218.746 30.3201 218.799 30.4001C218.879 30.4534 219.053 30.4801 219.319 30.4801Z" fill="white"/>
<path d="M248.95 23.5201C249.35 23.9734 249.55 24.5201 249.55 25.1601C249.55 25.8001 249.283 26.5867 248.75 27.5201C248.083 29.1201 247.497 31.1067 246.99 33.4801C246.483 35.8534 245.977 37.7467 245.47 39.1601C244.99 40.6001 244.457 41.8267 243.87 42.8401C243.31 43.8534 242.537 44.6934 241.55 45.3601C240.563 46.0267 239.43 46.3601 238.15 46.3601C236.363 46.3601 234.763 45.7734 233.35 44.6001C231.937 43.4267 231.23 42.4134 231.23 41.5601C231.23 40.7334 231.457 39.9734 231.91 39.2801C232.363 38.6134 232.777 38.2801 233.15 38.2801C233.55 38.2801 233.923 38.4934 234.27 38.9201C234.643 39.3467 234.977 39.8001 235.27 40.2801C235.59 40.7867 236.003 41.2534 236.51 41.6801C237.017 42.1067 237.577 42.3201 238.19 42.3201C238.803 42.3201 239.363 41.9201 239.87 41.1201C240.377 40.3201 240.763 39.4534 241.03 38.5201C241.697 36.3334 242.11 34.7734 242.27 33.8401C240.457 34.9601 238.977 35.5201 237.83 35.5201C236.71 35.5201 235.617 34.9067 234.55 33.6801C233.483 32.4267 232.95 31.2534 232.95 30.1601C232.95 29.0401 233.243 27.6534 233.83 26.0001C234.443 24.3201 235.217 22.6534 236.15 21.0001C237.11 19.3201 238.31 17.8801 239.75 16.6801C241.217 15.4801 242.683 14.8801 244.15 14.8801C245.137 14.8801 245.977 15.1334 246.67 15.6401C247.363 16.1201 247.87 16.7734 248.19 17.6001C248.75 19.0401 249.03 20.6667 249.03 22.4801C249.03 22.7467 249.003 23.0934 248.95 23.5201ZM237.87 29.9601C237.87 30.3067 238.017 30.4801 238.31 30.4801C239.083 30.4801 240.337 29.7734 242.07 28.3601C243.803 26.9467 244.963 25.5467 245.55 24.1601V23.4001C245.55 21.6667 245.39 20.6134 245.07 20.2401C244.91 20.0534 244.697 19.9601 244.43 19.9601C243.15 19.9601 241.737 21.3067 240.19 24.0001C238.643 26.6934 237.87 28.6801 237.87 29.9601Z" fill="white"/>
<path d="M269.128 22.3601C269.128 23.6667 268.234 24.8401 266.448 25.8801C264.688 26.9201 262.874 27.4401 261.008 27.4401C259.141 27.4401 257.608 27.3067 256.408 27.0401C256.168 27.7601 256.048 28.4801 256.048 29.2001C256.048 29.9201 256.168 30.4401 256.408 30.7601C256.648 31.0534 257.248 31.2001 258.208 31.2001C260.208 31.2001 261.914 31.0134 263.328 30.6401C264.768 30.2667 265.514 30.0801 265.568 30.0801C266.661 30.0801 267.208 30.4401 267.208 31.1601C267.208 32.2001 266.341 33.1867 264.608 34.1201C262.901 35.0534 260.914 35.5201 258.648 35.5201C256.408 35.5201 254.608 34.8134 253.248 33.4001C251.888 31.9867 251.208 30.3201 251.208 28.4001C251.208 26.4534 251.768 24.4267 252.888 22.3201C254.034 20.2134 255.461 18.4534 257.168 17.0401C258.874 15.6001 260.568 14.8801 262.248 14.8801C263.954 14.8801 265.528 15.7201 266.968 17.4001C268.408 19.0534 269.128 20.7067 269.128 22.3601ZM264.488 21.7201C264.488 21.4534 264.208 21.0667 263.648 20.5601C263.088 20.0534 262.554 19.8001 262.048 19.8001C261.568 19.8001 260.941 20.1601 260.168 20.8801C259.394 21.5734 258.661 22.4801 257.968 23.6001C258.208 23.6267 258.554 23.6401 259.008 23.6401C262.661 23.6401 264.488 23.0001 264.488 21.7201Z" fill="white"/>
<path d="M282.299 14.9201C283.312 14.9201 284.312 15.5201 285.299 16.7201C286.286 17.9201 286.779 19.0001 286.779 19.9601C286.779 20.6001 286.499 20.9201 285.939 20.9201C285.619 20.9201 285.152 20.8001 284.539 20.5601C283.926 20.2934 283.299 20.1601 282.659 20.1601C282.046 20.1601 281.126 20.3734 279.899 20.8001C278.699 21.2267 278.099 21.7867 278.099 22.4801C278.099 22.7467 278.459 23.1334 279.179 23.6401C279.899 24.1467 280.686 24.6667 281.539 25.2001C282.392 25.7334 283.179 26.4801 283.899 27.4401C284.619 28.3734 284.979 29.4001 284.979 30.5201C284.979 31.6134 284.166 32.7201 282.539 33.8401C280.939 34.9601 279.046 35.5201 276.859 35.5201C274.699 35.5201 272.846 35.0267 271.299 34.0401C269.752 33.0534 268.979 32.0401 268.979 31.0001C268.979 29.9601 269.406 29.4401 270.259 29.4401C270.606 29.4401 271.019 29.5734 271.499 29.8401C272.832 30.6134 274.486 31.0001 276.459 31.0001C278.459 31.0001 279.459 30.7334 279.459 30.2001C279.459 29.6667 279.072 29.0801 278.299 28.4401C277.552 27.7734 276.726 27.1601 275.819 26.6001C274.939 26.0401 274.112 25.3601 273.339 24.5601C272.592 23.7334 272.219 22.9334 272.219 22.1601C272.219 20.7201 273.526 19.1601 276.139 17.4801C278.752 15.7734 280.806 14.9201 282.299 14.9201Z" fill="white"/>
<path d="M257.605 50.5801C257.605 51.2827 257.214 51.9741 256.432 52.6541C255.661 53.3341 254.721 53.8781 253.61 54.2861C252.511 54.6827 251.462 54.8811 250.465 54.8811C250.034 54.8811 249.53 54.6204 248.952 54.0991C248.374 53.5664 248.085 53.1301 248.085 52.7901C248.085 52.5974 248.125 52.4444 248.204 52.3311C248.295 52.2177 248.397 52.1611 248.51 52.1611C248.623 52.1611 248.873 52.2574 249.258 52.4501C249.655 52.6314 249.949 52.7221 250.142 52.7221C250.346 52.7221 250.544 52.7051 250.737 52.6711C250.454 52.5577 250.17 52.3594 249.887 52.0761C249.604 51.7927 249.462 51.5207 249.462 51.2601C249.462 51.1467 249.649 50.3251 250.023 48.7951C250.397 47.2537 250.595 45.9391 250.618 44.8511C250.414 44.6584 250.227 44.4261 250.057 44.1541C249.898 43.8707 249.819 43.6611 249.819 43.5251C249.819 43.2077 250.068 42.9527 250.567 42.7601C251.066 42.5674 251.689 42.4711 252.437 42.4711C254.024 42.4711 255.293 42.6807 256.245 43.1001C257.208 43.5194 257.69 44.1881 257.69 45.1061C257.69 45.6841 257.446 46.2734 256.959 46.8741C256.472 47.4747 255.831 48.0244 255.038 48.5231L255.208 48.5741C255.888 48.7554 256.455 49.0274 256.908 49.3901C257.373 49.7414 257.605 50.1381 257.605 50.5801ZM254.596 44.6471C254.245 44.6471 253.417 44.7717 252.114 45.0211C252.522 45.4744 252.726 45.854 252.726 46.16C252.726 46.4547 252.63 47.0044 252.437 47.8091C252.618 47.6731 252.941 47.4747 253.406 47.2141C253.871 46.9534 254.16 46.7834 254.273 46.7041C254.398 46.6134 254.562 46.4831 254.766 46.3131C255.151 46.0071 255.344 45.6557 255.344 45.2591C255.344 44.8511 255.095 44.6471 254.596 44.6471ZM255.463 50.5121C255.463 50.2854 255.134 50.0927 254.477 49.9341C253.831 49.7641 253.293 49.6791 252.862 49.6791C252.624 49.6791 252.369 49.5034 252.097 49.1521C251.587 51.2487 251.281 52.3991 251.179 52.6031C252.131 52.3991 253.083 52.0874 254.035 51.6681C254.987 51.2487 255.463 50.8634 255.463 50.5121Z" fill="white"/>
<path d="M262.824 47.6391C263.425 47.6391 264.071 47.6107 264.762 47.5541C265.454 47.4861 265.879 47.4521 266.037 47.4521C266.207 47.4521 266.338 47.4917 266.428 47.5711C266.53 47.6504 266.581 47.7467 266.581 47.8601C266.581 48.3587 266.111 48.7554 265.17 49.0501C264.23 49.3447 263.227 49.5147 262.161 49.5601C261.719 50.9314 261.498 51.7984 261.498 52.1611C261.498 52.3537 261.595 52.4501 261.787 52.4501C263.079 52.4501 264.411 52.2801 265.782 51.9401C266.247 51.8154 266.513 51.753 266.581 51.753C266.797 51.753 266.904 51.9061 266.904 52.2121C266.904 52.6201 266.604 53.0167 266.003 53.4021C265.403 53.7874 264.649 54.0934 263.742 54.3201C262.836 54.5467 261.946 54.6601 261.073 54.6601C260.552 54.6601 260.082 54.4674 259.662 54.0821C259.243 53.6854 259.033 53.2264 259.033 52.7051C259.033 52.1724 259.322 50.8464 259.9 48.7271C260.49 46.6077 260.801 45.0097 260.835 43.9331C260.824 43.8991 260.818 43.8311 260.818 43.7291C260.818 43.5704 260.841 43.4457 260.886 43.3551C261.011 43.0377 261.357 42.8394 261.923 42.7601C262.49 42.6694 263.51 42.6241 264.983 42.6241C267.431 42.6241 268.655 42.8961 268.655 43.4401C268.655 43.7914 268.355 44.0351 267.754 44.1711C267.346 44.2617 266.785 44.3467 266.071 44.4261C264.972 44.5507 263.992 44.7321 263.13 44.9701C263.13 45.7407 262.994 46.6304 262.722 47.6391H262.824Z" fill="white"/>
<path d="M272.137 44.7491C270.913 44.8171 270.244 44.8511 270.131 44.8511C269.859 44.8511 269.587 44.6867 269.315 44.3581C269.043 44.0181 268.907 43.6667 268.907 43.3041C268.907 42.7487 270.522 42.4711 273.752 42.4711C275.406 42.4711 276.625 42.6411 277.407 42.9811C278.189 43.3211 278.58 43.7347 278.58 44.2221C278.58 44.3694 278.495 44.5111 278.325 44.6471C278.155 44.7717 277.939 44.8341 277.679 44.8341C277.418 44.8341 276.942 44.8171 276.251 44.7831C275.559 44.7491 274.93 44.7264 274.364 44.7151C274.409 44.8511 274.432 45.0097 274.432 45.1911C274.432 45.3724 274.364 45.7294 274.228 46.2621C274.103 46.7947 273.922 47.5371 273.684 48.4891C273.446 49.4297 273.185 50.5744 272.902 51.923C272.618 53.2604 272.42 54.0594 272.307 54.3201C272.205 54.5694 272.103 54.6941 272.001 54.6941C271.763 54.6941 271.462 54.4787 271.1 54.0481C270.748 53.6061 270.573 53.2491 270.573 52.9771C270.573 52.7051 270.805 51.5831 271.27 49.6111C271.734 47.6277 272.023 46.0071 272.137 44.7491Z" fill="white"/>
<path d="M285.872 48.4041C286.325 48.4041 286.648 48.4494 286.841 48.5401C287.045 48.6194 287.147 48.7724 287.147 48.9991C287.147 49.3051 286.654 49.6167 285.668 49.9341C285.69 50.7954 285.702 51.6227 285.702 52.416C285.702 53.1981 285.639 53.7874 285.515 54.1841C285.39 54.5694 285.192 54.7621 284.92 54.7621C284.648 54.7621 284.432 54.6261 284.274 54.3541C284.126 54.0707 284.002 53.6117 283.9 52.9771C283.809 52.3424 283.713 51.5037 283.611 50.4611C282.455 50.7217 281.622 50.9314 281.112 51.0901C280.228 53.5381 279.638 54.7621 279.344 54.7621C279.106 54.7621 278.788 54.6034 278.392 54.2861C278.006 53.9687 277.814 53.6401 277.814 53.3001C277.814 53.1074 278.035 52.5067 278.477 51.4981C278.284 51.3734 278.114 51.1977 277.967 50.9711C277.831 50.7331 277.763 50.5064 277.763 50.2911C277.763 49.9171 278.324 49.5601 279.446 49.2201C279.536 48.9934 279.627 48.7384 279.718 48.4551C279.82 48.1604 280.063 47.4804 280.449 46.4151C280.845 45.3497 281.157 44.4601 281.384 43.746C281.486 43.4061 281.837 43.0887 282.438 42.7941C283.05 42.4994 283.526 42.3521 283.866 42.3521C284.262 42.3521 284.614 42.9017 284.92 44.0011C285.237 45.1004 285.458 46.5681 285.583 48.4041H285.872ZM281.945 48.6931C282.285 48.6477 282.778 48.5911 283.424 48.5231C283.39 48.1944 283.333 47.6334 283.254 46.8401C283.186 46.0467 283.135 45.4744 283.101 45.1231C282.908 45.7577 282.523 46.9477 281.945 48.6931Z" fill="white"/>
</g>
<defs>
<filter id="filter0_d_116_481" x="0.639999" y="0.680054" width="291.507" height="61.201" filterUnits="userSpaceOnUse" color-interpolation-filters="sRGB">
<feFlood flood-opacity="0" result="BackgroundImageFix"/>
<feColorMatrix in="SourceAlpha" type="matrix" values="0 0 0 0 0 0 0 0 0 0 0 0 0 0 0 0 0 0 127 0" result="hardAlpha"/>
<feOffset dy="2"/>
<feGaussianBlur stdDeviation="2.5"/>
<feComposite in2="hardAlpha" operator="out"/>
<feColorMatrix type="matrix" values="0 0 0 0 0 0 0 0 0 0 0 0 0 0 0 0 0 0 0.18 0"/>
<feBlend mode="normal" in2="BackgroundImageFix" result="effect1_dropShadow_116_481"/>
<feBlend mode="normal" in="SourceGraphic" in2="effect1_dropShadow_116_481" result="shape"/>
</filter>
</defs>
</svg>
